<svg viewBox="0 0 245 156" fill="none" xmlns="http://www.w3.org/2000/svg"><path d="M18.558 77.09v.001c5.649 3.093 12.073 4.638 19.27 4.638 7.03 0 12.766-1.425 17.196-4.287 2.626-1.711 4.78-3.84 6.46-6.385l.811 9.373.01.114H76.86V38.095H40.272v13.882h18.475v1.06c0 2.197-.405 4.113-1.21 5.752-.807 1.562-1.935 2.89-3.388 3.986-1.455 1.017-3.154 1.801-5.1 2.351-1.944.55-4.094.825-6.45.825-4.387 0-8.075-.866-11.07-2.59-2.91-1.801-5.136-4.544-6.677-8.237-1.46-3.695-2.193-8.3-2.193-13.822 0-5.284.732-9.692 2.193-13.228v-.001c1.46-3.615 3.606-6.319 6.436-8.12l.002-.002c2.83-1.88 6.232-2.824 10.208-2.824 3.978 0 7.296.905 9.963 2.705 2.66 1.796 4.522 4.69 5.577 8.7l.035.135.13-.05 19.454-7.468.123-.047-.053-.12c-3.109-6.974-7.489-12.054-13.144-15.23C57.93 2.496 50.524.874 41.376.874c-8.255 0-15.454 1.623-21.593 4.875C13.725 9 9.058 13.642 5.784 19.669 2.51 25.697.875 32.949.875 41.421c0 8.628 1.552 15.958 4.663 21.986 3.11 6.026 7.45 10.589 13.02 13.684Zm96.311-25.113h12.415l17.206 28.507.037.06h23.55l-.129-.194-20.945-31.448c3.14-1.034 5.872-2.467 8.194-4.301 5.337-4.217 8-10.341 8-18.353 0-7.305-2.707-13.15-8.121-17.521-5.332-4.45-12.827-6.667-22.469-6.667H93.942v78.484h20.927V51.977Zm64.651 28.442v.125h64.728V64.529h-43.434V48.776h33.279V33.71h-33.279V18.076h41.844V2.06H179.52V80.42ZM138.77 34.92c-2.008 1.556-5.034 2.345-9.1 2.345h-14.801V17.72h14.801c4.066 0 7.092.788 9.1 2.345 2 1.55 3.01 3.996 3.01 7.368 0 3.453-1.011 5.939-3.01 7.488Z" stroke="#fff" stroke-width=".25"/><path d="M100.587 75.581v-.125H69.778l-.028.085-13.41 39.947v.004l-4.921 16.387h-.073l-4.791-16.505-.002-.005-13.54-39.828-.028-.085H.875v78.484h20.168v-36.045l-.647-23.934h.043l21.191 59.895.03.084H59.932l.03-.084 21.19-59.895h.044l-.647 23.934v36.045h20.038V75.581Zm42.721 0v-.125h-22.642v78.484h22.642V75.581Zm41.827 25.77v-.001c1.467-3.614 3.622-6.319 6.46-8.12 2.84-1.802 6.331-2.707 10.478-2.707 4.148 0 7.595.905 10.347 2.706h.001c2.839 1.802 4.994 4.507 6.461 8.121v.001c1.467 3.536 2.204 7.984 2.204 13.347 0 5.284-.737 9.731-2.204 13.347-1.467 3.615-3.622 6.319-6.461 8.121l-.001.001c-2.752 1.801-6.199 2.706-10.347 2.706-4.147 0-7.638-.905-10.478-2.707-2.838-1.802-4.993-4.506-6.46-8.121-1.468-3.616-2.204-8.063-2.204-13.347 0-5.363.736-9.811 2.204-13.347Zm39.387 49.019c6.357-3.251 11.236-7.891 14.633-13.919 3.398-6.028 5.093-13.281 5.093-21.753s-1.695-15.725-5.093-21.753c-3.397-6.028-8.276-10.629-14.633-13.8-6.27-3.251-13.754-4.874-22.449-4.874-8.694 0-16.221 1.623-22.578 4.873-6.357 3.172-11.236 7.772-14.633 13.8-3.398 6.029-5.094 13.282-5.094 21.754 0 8.472 1.696 15.725 5.094 21.753 3.397 6.028 8.276 10.668 14.632 13.919h.002c6.356 3.172 13.883 4.755 22.577 4.755 8.695 0 16.179-1.583 22.449-4.755Z" stroke="#fff" stroke-width=".25"/></svg>